<?xml version="1.0" ?><!-- Created with Inkscape (http://www.inkscape.org/) --><svg xmlns:xlink="http://www.w3.org/1999/xlink" xmlns="http://www.w3.org/2000/svg" xmlns:svg="http://www.w3.org/2000/svg" version="1.1" id="svg1" viewBox="0 0 1024 1024">
  <defs id="defs1"/>
  <g id="g1">
    
    <path style="fill:#000000" d="M 463.84316,927.75 C 448.10567,904.5125 425.13002,870.2 412.78614,851.5 400.44227,832.8 376.69725,796.575 360.01942,771 343.3416,745.425 325.66753,718.3125 320.74371,710.75 315.8199,703.1875 311.65318,697 311.48435,697 c -0.16883,0 -5.63438,2.27722 -12.14566,5.06049 -6.51128,2.78327 -15.60792,7.06143 -20.21475,9.50701 -4.60683,2.44558 -11.35683,6.44318 -15,8.88354 -3.64317,2.44037 -8.92672,6.46987 -11.74123,8.95445 -2.8145,2.48458 -7.18943,7.57226 -9.72207,11.30596 -2.7446,4.04621 -5.22201,9.19623 -6.13271,12.74865 -0.84036,3.27805 -1.52128,7.77805 -1.51315,10 0.008,2.22194 0.67992,6.86102 1.49286,10.30906 0.81295,3.44803 2.65203,8.58583 4.08686,11.41732 1.43482,2.8315 4.80817,7.47371 7.49632,10.31603 2.68814,2.84232 7.18749,6.41964 9.99855,7.94961 2.81105,1.52997 7.42842,3.3988 10.26082,4.15295 2.83239,0.75416 7.84981,1.37119 11.14981,1.37119 3.3,0 8.25,-0.60103 11,-1.33561 2.75,-0.73459 6.93278,-2.32374 9.29506,-3.53145 2.36228,-1.2077 6.05846,-3.78895 8.21372,-5.7361 2.15526,-1.94714 5.28498,-6.27453 6.95494,-9.61641 2.16043,-4.3234 3.03628,-7.51102 3.03628,-11.05039 0,-2.73584 -0.52921,-6.7406 -1.17602,-8.89946 -0.64681,-2.15885 -2.89681,-5.88012 -5,-8.26947 C 309.72079,758.14802 308,755.69965 308,755.09655 308,754.49345 308.59579,754 309.32398,754 c 0.72819,0 3.47434,1.52885 6.10255,3.39744 2.62822,1.8686 6.26837,5.49287 8.08922,8.05394 1.82086,2.56107 3.85712,6.93446 4.52504,9.71865 0.67541,2.81542 0.98378,7.93512 0.69479,11.53526 -0.3766,4.69168 -1.50352,8.44377 -4.09486,13.6339 -1.9664,3.93845 -5.40678,9.27698 -7.64529,11.86341 -2.23851,2.58644 -7.44421,6.9594 -11.56822,9.71771 -4.49486,3.00635 -10.78844,6.0808 -15.7127,7.67575 -6.85422,2.22005 -10.03606,2.66129 -19.21451,2.66458 -8.0534,0.003 -13.14298,-0.56568 -19,-2.12251 -4.4,-1.16954 -11.6,-3.90744 -16,-6.08421 -4.4,-2.17678 -10.83341,-6.26676 -14.29647,-9.08885 -3.46305,-2.82209 -8.72374,-8.07377 -11.69042,-11.6704 -2.96667,-3.59664 -6.95442,-9.52179 -8.86166,-13.16701 C 198.7442,786.48245 196.12989,780.125 194.84186,776 192.85471,769.63597 192.5,766.37952 192.5,754.5 c 0,-11.86229 0.35658,-15.1452 2.33529,-21.5 1.28441,-4.125 4.09707,-11.03993 6.25036,-15.36651 2.15329,-4.32658 5.58846,-10.17658 7.63371,-13 2.04526,-2.82342 6.4326,-8.00169 9.74964,-11.50727 3.31705,-3.50557 9.44986,-8.98605 13.62847,-12.17883 4.17861,-3.19278 11.82861,-8.38481 17,-11.53784 5.17139,-3.15304 14.83118,-8.70481 21.46619,-12.33727 12.06366,-6.60447 12.06366,-6.60447 0.22596,-25.58838 -6.51073,-10.44114 -12.22149,-19.61648 -12.69057,-20.38964 -0.70634,-1.16423 -1.36142,-1.04362 -3.81296,0.70203 -1.62805,1.15927 -6.97094,4.11071 -11.87309,6.55876 -4.90215,2.44805 -12.1476,5.5999 -16.10101,7.00412 -3.95341,1.40421 -11.15341,3.29829 -16,4.20905 -6.72764,1.26426 -12.24176,1.53277 -23.31199,1.13522 -8.72507,-0.31334 -16.88963,-1.17371 -20.5,-2.16026 -3.3,-0.90175 -10.5,-3.85649 -16,-6.56611 -6.04432,-2.97777 -12.57119,-7.17404 -16.5,-10.6082 -3.575,-3.1249 -8.66059,-8.36984 -11.30132,-11.65543 -2.64072,-3.28558 -6.12353,-8.59308 -7.73956,-11.79443 -1.61604,-3.20136 -3.89518,-9.30865 -5.06474,-13.57176 -1.77965,-6.48686 -2.05088,-9.63466 -1.66292,-19.29918 0.3349,-8.3429 1.07976,-13.35215 2.68368,-18.04807 1.22106,-3.575 4.0026,-9.52542 6.1812,-13.22315 2.17859,-3.69774 6.79836,-9.54774 10.26615,-13 3.4678,-3.45227 9.19238,-7.97586 12.7213,-10.05244 3.52891,-2.07657 10.01621,-4.92798 14.41621,-6.33646 5.18891,-1.66101 11.36901,-2.75414 17.58777,-3.11088 7.07494,-0.40587 11.6056,-0.10109 17.28688,1.16287 4.23451,0.94209 11.17001,3.45932 15.41223,5.59385 4.24221,2.13453 9.92207,5.71869 12.62189,7.96481 2.69983,2.24612 5.24243,3.7278 5.65024,3.29263 0.4078,-0.43518 4.7482,-8.48338 9.64534,-17.88489 8.90388,-17.09366 8.90388,-17.09366 -0.15024,-18.82715 -4.97976,-0.95342 -14.00411,-3.31223 -20.05411,-5.2418 -6.05,-1.92958 -16.06802,-5.97785 -22.26227,-8.99616 -6.19425,-3.01831 -14.84951,-8.14762 -19.23393,-11.39846 -4.38441,-3.25084 -10.5995,-8.53847 -13.81132,-11.75029 -3.21181,-3.21181 -7.95352,-8.80196 -10.53711,-12.42255 -2.5836,-3.62059 -6.50251,-10.43477 -8.70868,-15.14263 -2.20618,-4.70785 -4.92091,-12.06244 -6.03273,-16.34352 C 130.80214,387.0027 129.63481,378.775 129.31991,373 c -0.32705,-5.99765 -0.0887,-13.58946 0.55585,-17.70497 0.62062,-3.96273 2.24379,-10.71273 3.60704,-15 1.36325,-4.28726 4.622,-11.62003 7.24167,-16.29503 3.58966,-6.40601 7.47445,-11.23479 15.76928,-19.60117 9.44986,-9.53135 14.04655,-13.12296 32.50625,-25.3986 11.825,-7.86359 24.155,-16.33381 27.4,-18.82271 3.24501,-2.48889 8.27405,-6.93754 11.17566,-9.88588 2.90161,-2.94835 6.91029,-7.8233 8.90817,-10.83324 1.99788,-3.00994 4.77388,-8.05344 6.16888,-11.20779 1.395,-3.15434 3.17008,-9.04731 3.94463,-13.09549 1.08305,-5.66059 1.16809,-8.86372 0.36826,-13.87048 -0.57201,-3.58059 -1.98819,-8.37192 -3.14709,-10.6474 -1.15889,-2.27548 -3.24484,-5.63158 -4.63544,-7.45798 -1.3906,-1.82641 -4.40049,-4.6088 -6.68864,-6.18309 -2.28815,-1.57429 -6.92127,-3.79246 -10.29581,-4.92926 C 218.16292,170.70738 213.49832,170 208.56906,170 c -5.02117,0 -9.2388,0.65326 -12.78155,1.9797 -2.90813,1.08883 -6.94641,3.34801 -8.97395,5.02041 -2.02754,1.67239 -4.93499,5.59268 -6.46101,8.71175 -2.21466,4.5266 -2.78245,7.09548 -2.81357,12.72959 -0.0318,5.76334 0.47682,8.10892 2.77197,12.7828 1.54602,3.14833 4.63476,7.28536 6.86387,9.1934 2.22911,1.90803 6.13919,4.47668 8.68906,5.70811 2.88232,1.39199 7.20889,2.40291 11.43716,2.67233 5.61105,0.35754 6.74615,0.71835 6.48737,2.06212 -0.22064,1.14565 -2.23786,1.98437 -6.80104,2.82774 -4.40957,0.81498 -8.36235,0.90925 -12.34151,0.29432 -3.21977,-0.49757 -7.79283,-1.84319 -10.16235,-2.99025 -2.36951,-1.14706 -6.35612,-3.88821 -8.85911,-6.09144 -2.73776,-2.40987 -5.80499,-6.55328 -7.6986,-10.39975 -1.9167,-3.89336 -3.56921,-9.31972 -4.22551,-13.8753 -0.76496,-5.30983 -0.76922,-9.47509 -0.0147,-14.34985 0.58473,-3.77764 2.26505,-9.40906 3.73405,-12.51427 1.469,-3.10521 4.67441,-7.87421 7.12313,-10.59777 2.44872,-2.72357 6.70418,-6.39702 9.45657,-8.16323 2.7524,-1.76621 7.74362,-4.06384 11.0916,-5.10585 C 199.46753,148.53242 204.18537,148 211.879,148 c 6.41295,0 13.08904,0.61918 16.6609,1.54523 3.27806,0.84987 9.3351,3.19635 13.4601,5.21439 5.68988,2.78361 9.55696,5.72923 16.02276,12.20477 6.37102,6.38063 9.4616,10.42913 12.24136,16.03561 2.04522,4.125 4.39748,10.18204 5.22723,13.4601 0.82976,3.27805 1.50865,9.39357 1.50865,13.59004 0,4.36747 -0.86197,11.01214 -2.0159,15.5399 -1.10874,4.35048 -3.54897,11.14595 -5.42273,15.10105 -1.87376,3.9551 -5.31109,10.0301 -7.63851,13.5 -2.32742,3.4699 -6.27669,8.78391 -8.77615,11.80891 -2.49946,3.025 -13.82146,14.95 -25.15999,26.5 -11.33853,11.55 -22.92172,23.80304 -25.74042,27.22899 -2.81871,3.42594 -6.68743,9.05094 -8.59717,12.5 -1.90973,3.44905 -4.43813,9.42101 -5.61866,13.27101 -1.41219,4.60553 -2.15697,9.73653 -2.17728,15 -0.0208,5.39057 0.64564,10.14369 2.04321,14.57213 1.14074,3.61467 3.7983,9.23982 5.90566,12.50033 2.10737,3.26051 6.5814,8.41664 9.94227,11.45806 3.36088,3.04142 9.53077,7.48667 13.71087,9.87834 4.18009,2.39167 11.32751,5.63324 15.88314,7.2035 4.55563,1.57026 12.75567,3.81941 18.22231,4.99811 7.84436,1.69137 14.59427,2.24629 32.0239,2.6327 17.43849,0.38661 24.25448,0.14593 32.39904,-1.14404 5.67297,-0.89851 13.50992,-2.78461 17.41545,-4.19132 3.90553,-1.40672 7.88846,-2.80144 8.85096,-3.09937 1.1473,-0.35514 1.75,-0.008 1.75,1.00928 0,0.85304 -14.88459,26.38385 -33.07686,56.73513 -18.19227,30.35128 -33.30388,55.77576 -33.58135,56.49883 -0.27747,0.72308 7.92564,14.50726 18.22913,30.6315 10.30349,16.12425 26.02448,40.79182 34.93554,54.81682 8.91106,14.025 22.73669,35.85 30.72363,48.5 14.52171,23 14.52171,23 18.4767,23.29923 2.27544,0.17216 6.34872,-0.59637 9.59169,-1.80971 3.9086,-1.4624 6.83223,-3.46717 9.53633,-6.53919 2.1741,-2.46992 4.5115,-6.53648 5.28242,-9.19028 C 405.26696,665.30223 405.5,639.22006 405.5,514.5 c 0,-150 0,-150 -2.15268,-154 -1.18398,-2.2 -3.21512,-4.99102 -4.51365,-6.20227 -1.29853,-1.21125 -4.02787,-2.89875 -6.0652,-3.75 -2.03733,-0.85125 -4.50619,-1.53154 -5.48635,-1.51175 -1.23511,0.0249 -5.82767,6.70202 -14.96223,21.75348 -7.24906,11.94463 -14.55861,23.62047 -16.24345,25.94632 -2.01874,2.78678 -5.12095,5.2675 -9.09738,7.27479 -3.31872,1.67529 -9.95917,4.34395 -14.75655,5.93037 -4.79738,1.58642 -12.77251,3.4208 -17.72251,4.0764 -4.95,0.65561 -15.39061,1.03241 -23.20136,0.83733 -8.44307,-0.21086 -14.64303,-0.79688 -15.2906,-1.44527 -0.78595,-0.78693 6.4813,-13.45585 26.10011,-45.5 14.95414,-24.42517 35.29231,-57.6844 45.19592,-73.9094 9.90362,-16.225 25.15797,-41.36621 33.89856,-55.86936 8.7406,-14.50314 15.72941,-26.53193 15.5307,-26.73065 -0.19872,-0.19871 -5.19768,2.54351 -11.10881,6.09382 -5.91113,3.55031 -14.43233,9.05081 -18.93601,12.22334 -4.50368,3.17253 -12.68851,9.33156 -18.18851,13.68673 -5.5,4.35518 -14.725,12.70311 -20.5,18.55097 -5.775,5.84785 -13.3559,14.66282 -16.84645,19.58881 C 307.663,286.46965 302.61922,295 299.94514,300.5 c -2.67408,5.5 -6.0425,14.05 -7.48538,19 -1.69808,5.82551 -2.82105,12.6053 -3.18374,19.22141 -0.42197,7.69758 -0.14823,11.91693 1.10865,17.08819 1.66897,6.86678 1.66897,6.86678 -6.60785,20.48738 -4.64145,7.63813 -8.94034,13.63871 -9.7875,13.66181 -0.83087,0.0227 -4.60814,-2.03672 -8.39394,-4.57642 -3.7858,-2.53969 -8.86634,-6.6007 -11.29009,-9.02445 -2.42376,-2.42376 -5.92222,-7.56892 -7.77437,-11.43369 -1.85214,-3.86478 -3.90873,-10.23546 -4.5702,-14.15708 -0.68228,-4.04504 -1.00043,-11.70311 -0.73527,-17.69869 0.37286,-8.43094 1.11821,-12.48988 3.68521,-20.06846 1.76979,-5.225 5.29779,-13.44536 7.83998,-18.26746 2.5422,-4.82211 8.24317,-13.59711 12.66884,-19.5 4.42566,-5.9029 13.0293,-15.72192 19.11918,-21.82005 6.08989,-6.09812 15.67541,-14.75447 21.30116,-19.23632 5.62576,-4.48186 15.27574,-11.46067 21.44441,-15.50847 6.16868,-4.04781 15.71577,-9.85387 21.21577,-12.90236 5.5,-3.04849 15.625,-8.01457 22.5,-11.03574 6.875,-3.02117 17.59429,-7.13423 23.82064,-9.14013 6.22635,-2.0059 13.30705,-3.91936 15.73489,-4.25214 4.2378,-0.58085 4.62107,-0.92948 9.58769,-8.72118 C 422.9886,168.15227 433.27024,151.9 442.9913,136.5 c 9.72106,-15.4 22.85338,-36.325 29.18293,-46.5 6.32955,-10.175 13.39956,-21.7625 15.71113,-25.75 2.68004,-4.623107 4.82096,-7.232971 5.90875,-7.203003 1.14369,0.03151 7.77497,10.00088 20.12126,30.25 C 524.04382,103.90865 546.1353,140 563.00755,167.5 c 16.87225,27.5 42.33534,68.90568 56.58464,92.01263 14.24929,23.10694 36.25781,58.9911 48.90781,79.74257 12.65,20.75148 23.28524,37.73329 23.63386,37.73738 0.34862,0.004 1.58922,-2.35508 2.75689,-5.24258 1.16767,-2.8875 2.78712,-8.4 3.59878,-12.25 0.81166,-3.85 1.48016,-9.475 1.48555,-12.5 0.005,-3.025 -0.45168,-8.425 -1.01571,-12 -0.56404,-3.575 -1.96739,-9.425 -3.11855,-13 -1.15116,-3.575 -4.16264,-10.55 -6.69219,-15.5 -2.52955,-4.95 -7.42398,-12.74909 -10.87652,-17.33131 -3.45253,-4.58223 -9.31366,-11.72186 -13.02472,-15.86585 -3.71106,-4.144 -11.47239,-11.8032 -17.24739,-17.02045 -5.775,-5.21726 -15.30643,-13.0987 -21.18096,-17.51431 -10.68097,-8.02839 -10.68097,-8.02839 -24.25,-29.802 C 595.10607,196.99059 589,186.47416 589,185.59623 589,184.7183 589.4114,184 589.91422,184 c 0.50282,0 5.07414,1.58749 10.1585,3.52775 5.08435,1.94026 14.68545,6.13883 21.33578,9.33016 6.65032,3.19132 18.18214,9.43781 25.62625,13.88107 7.44411,4.44327 18.69411,11.76939 25,16.28028 6.30589,4.51089 15.07122,11.26016 19.47852,14.99839 4.40729,3.73822 12.06655,11.00102 17.02057,16.13956 4.95402,5.13853 12.02533,13.39279 15.71402,18.34279 3.68869,4.95 9.17527,13.95 12.19239,20 3.01713,6.05 6.60692,15.20744 7.97731,20.34986 1.3704,5.14242 3.01685,13.86767 3.65879,19.38943 0.66613,5.7298 0.94442,16.09691 0.64829,24.15014 -0.37391,10.16848 -1.09792,16.03579 -2.59156,21.00182 -1.13999,3.79019 -3.7384,10.4408 -5.77426,14.77914 -2.03585,4.33834 -6.31057,11.81227 -9.49936,16.60875 -5.79781,8.72086 -5.79781,8.72086 -3.12832,9.05661 1.46822,0.18466 6.29184,-0.18489 10.71917,-0.82123 4.42733,-0.63635 12.0903,-2.5009 17.02882,-4.14346 4.93852,-1.64255 11.46352,-4.38723 14.5,-6.09927 3.03648,-1.71205 7.77087,-4.85839 10.52087,-6.99187 2.75,-2.13349 6.95111,-6.19791 9.3358,-9.03206 2.38469,-2.83414 5.48992,-7.42433 6.90052,-10.20042 1.41059,-2.77609 3.16664,-7.29744 3.90233,-10.04744 0.73569,-2.75 1.34295,-8.74566 1.34948,-13.32368 0.009,-6.29719 -0.6127,-10.19257 -2.55349,-16 -1.41095,-4.22198 -3.72058,-9.70132 -5.1325,-12.17632 -1.41192,-2.475 -4.92734,-7.67497 -7.81203,-11.55549 -2.88469,-3.88052 -15.76257,-17.83052 -28.6175,-31 C 745.01767,277.27503 732.13277,263.35 729.23948,259.5 c -2.89328,-3.85 -7.48514,-11.5 -10.20412,-17 -2.71897,-5.5 -5.6187,-12.7 -6.44382,-16 -0.82513,-3.3 -1.80201,-8.97984 -2.17086,-12.62187 -0.39172,-3.86803 -0.17829,-9.44903 0.51323,-13.42002 0.65112,-3.73899 2.3247,-9.50869 3.71907,-12.82157 1.39437,-3.31288 4.24278,-8.53791 6.32981,-11.61119 2.08702,-3.07328 6.74887,-8.35137 10.35966,-11.72909 3.93044,-3.67674 9.49313,-7.57289 13.86131,-9.70859 4.01293,-1.962 10.22124,-4.3121 13.79624,-5.22245 3.89081,-0.99077 10.51414,-1.65945 16.5,-1.66582 6.57948,-0.007 12.05231,0.58593 16,1.73343 3.3,0.95924 7.575,2.69359 9.5,3.85413 1.925,1.16053 5.21568,3.46869 7.31263,5.12925 2.09695,1.66055 5.58028,5.66625 7.74073,8.90155 2.16045,3.23531 4.83227,8.80974 5.93737,12.38764 C 823.27436,183.86131 824,189.02377 824,194 c 0,5.01505 -0.71397,10.05287 -2.0046,14.14466 -1.10254,3.49544 -3.58007,8.49031 -5.50563,11.09971 -1.92557,2.6094 -5.636,6.31073 -8.2454,8.22517 -2.6094,1.91444 -6.99437,4.25838 -9.74437,5.20875 -3.23841,1.11916 -7.64239,1.67637 -12.5,1.58154 -4.125,-0.0805 -8.85,-0.5418 -10.5,-1.02506 -1.65,-0.48327 -3,-1.52129 -3,-2.30672 0,-1.04736 1.86606,-1.5793 7,-1.99543 3.85,-0.31206 9.08008,-1.49886 11.6224,-2.63733 2.54233,-1.13847 6.39486,-3.67125 8.56119,-5.6284 2.16634,-1.95715 5.23226,-6.17035 6.81317,-9.36267 2.31651,-4.67773 2.88269,-7.16279 2.91718,-12.80422 0.0309,-5.06005 -0.53949,-8.27188 -2.0583,-11.58939 -1.1556,-2.52417 -3.80564,-6.29394 -5.88897,-8.37728 -2.08334,-2.08333 -5.85311,-4.70692 -8.37728,-5.8302 -2.79343,-1.2431 -7.58855,-2.21995 -12.25343,-2.49623 -5.89073,-0.34889 -9.24891,0.0275 -14.51361,1.62657 -3.76727,1.14427 -9.03179,3.52593 -11.69894,5.29258 -2.66715,1.76665 -6.36235,5.27351 -8.21156,7.79302 -1.84921,2.51951 -4.12267,6.83093 -5.05214,9.58093 -0.95558,2.82724 -1.68582,8.04187 -1.68045,12 0.005,3.85 0.79542,9.7 1.75599,13 0.96056,3.3 3.59688,9.6 5.85849,14 3.14803,6.12456 6.25506,10.13651 13.25356,17.11363 7.45126,7.42849 13.83511,12.2202 34.52547,25.91475 20.53572,13.5922 27.13222,18.53636 34.53759,25.88637 5.03452,4.99689 11.43125,12.5914 14.21495,16.87669 2.78371,4.2853 6.45179,11.39716 8.1513,15.80413 1.69951,4.40698 3.80369,11.46362 4.67595,15.68144 1.19022,5.75531 1.46181,11.16867 1.08845,21.69587 -0.39856,11.23814 -1.02009,15.77448 -3.12597,22.81544 -1.44567,4.83358 -4.25751,12.03358 -6.24854,16 -1.99102,3.96642 -5.85696,10.45648 -8.59097,14.42234 -2.73402,3.96587 -8.41447,10.49685 -12.62323,14.51329 -4.20877,4.01644 -10.8632,9.4344 -14.78763,12.0399 -3.92443,2.6055 -10.69382,6.51836 -15.04308,8.69523 -4.34926,2.17687 -12.61336,5.5301 -18.36467,7.45162 -5.7513,1.92152 -15.67024,4.54245 -22.04207,5.82429 -11.58514,2.33063 -11.58514,2.33063 -1.79423,19.17025 5.385,9.26179 10.04408,17.09279 10.3535,17.40221 0.30943,0.30943 2.24183,-1.03747 4.29424,-2.9931 2.0524,-1.95563 6.20664,-5.19972 9.23164,-7.20908 3.025,-2.00937 9.1,-4.79755 13.5,-6.19595 5.28369,-1.67926 11.39538,-2.73411 18,-3.10673 7.22344,-0.40753 12.22125,-0.11192 18,1.06467 4.47402,0.91094 11.52598,3.37075 16,5.581 4.4,2.17368 10.12665,5.7251 12.72589,7.89204 2.59924,2.16695 6.79557,6.35186 9.32518,9.2998 2.52961,2.94795 6.33838,8.9599 8.46394,13.3599 2.19129,4.53606 4.59827,11.66522 5.55893,16.46486 1.20643,6.0275 1.53461,11.06642 1.13977,17.5 -0.33984,5.53749 -1.5432,12.13207 -3.10852,17.03514 -1.40471,4.4 -4.25303,10.925 -6.3296,14.5 -2.07658,3.575 -7.41426,10.13727 -11.86153,14.58282 -6.75045,6.74784 -9.81754,8.94335 -18.57023,13.29309 -7.56168,3.75785 -13.25233,5.7842 -20.41406,7.26912 -8.52464,1.7675 -12.26463,1.9836 -26.42977,1.5271 -12.71838,-0.40987 -18.97446,-1.11121 -27.29659,-3.06009 -5.93812,-1.3906 -15.38812,-4.15523 -21,-6.14364 C 741.09154,619.48 735.6,617.63617 734.5,617.37101 c -1.68598,-0.40641 -3.72712,2.39033 -13,17.81233 -6.05,10.06194 -11.14364,18.61786 -11.3192,19.01315 -0.17556,0.39529 5.16687,3.4688 11.87207,6.83001 6.7052,3.36122 16.13591,8.55135 20.95713,11.53364 4.82122,2.98228 11.17879,7.22634 14.12793,9.43123 2.94914,2.20489 8.65583,7.27134 12.68154,11.25876 4.02571,3.98743 9.32784,10.25739 11.78251,13.93326 2.45467,3.67586 5.80781,9.64921 7.45142,13.27411 1.64361,3.6249 3.87583,10.29238 4.96048,14.81661 1.18421,4.93947 1.97491,11.73854 1.97911,17.01805 0.004,4.83569 -0.70584,12.26069 -1.57711,16.5 -0.87126,4.23931 -2.94583,10.98853 -4.61014,14.99826 -1.66431,4.00973 -5.15498,10.53473 -7.75703,14.5 -2.60205,3.96527 -8.28999,10.58706 -12.63986,14.71509 -4.72308,4.48221 -10.74668,8.99242 -14.95392,11.19684 -3.87478,2.03023 -10.62478,4.721 -15,5.9795 -6.34444,1.82492 -10.38436,2.28336 -19.95493,2.26441 -8.61115,-0.0171 -13.67756,-0.53054 -17.94028,-1.81826 -3.26715,-0.98698 -9.11715,-3.39411 -13,-5.34919 -4.74827,-2.39084 -9.37876,-5.88327 -14.14262,-10.66675 -4.81997,-4.83981 -8.17464,-9.34093 -10.5,-14.08834 -2.87083,-5.86102 -3.47308,-8.2894 -3.76727,-15.19038 -0.24731,-5.80135 0.14056,-9.69155 1.32048,-13.24396 0.94299,-2.83907 3.55866,-7.12978 6.00535,-9.85108 2.38408,-2.65168 5.9346,-5.68283 7.89004,-6.73591 1.95544,-1.05307 3.89469,-1.57533 4.30945,-1.16057 0.41476,0.41476 0.32003,1.34039 -0.21052,2.05695 -0.53055,0.71656 -2.40206,3.20288 -4.15891,5.52516 -1.87868,2.48331 -3.65276,6.43077 -4.30746,9.58445 -0.61225,2.94918 -0.80096,7.07878 -0.41937,9.17688 0.3816,2.09811 1.75741,5.9372 3.05737,8.53131 1.29996,2.59412 3.92901,6.28203 5.84234,8.19536 1.91333,1.91334 5.40087,4.60498 7.75009,5.98143 2.34922,1.37645 6.95335,3.20104 10.23141,4.05464 3.27805,0.8536 8.47101,1.552 11.5399,1.552 3.06889,0 8.16307,-0.67286 11.3204,-1.49524 3.15733,-0.82238 7.63937,-2.45164 9.9601,-3.62058 2.32072,-1.16894 6.0829,-3.63597 8.36039,-5.4823 2.27748,-1.84633 5.53202,-5.45719 7.23229,-8.02414 1.70028,-2.56694 3.98902,-7.06623 5.08609,-9.99841 1.09707,-2.93219 2.47024,-8.30819 3.05149,-11.94667 0.7354,-4.60342 0.74075,-8.32518 0.0176,-12.23706 -0.57157,-3.0919 -2.40401,-8.53814 -4.07209,-12.10274 -2.23427,-4.77452 -5.19607,-8.60236 -11.24803,-14.53698 -4.51834,-4.43074 -12.71361,-11.02461 -18.2117,-14.65306 -5.4981,-3.62844 -14.72154,-9.43218 -20.49654,-12.89718 -5.775,-3.465 -16.8,-9.56964 -24.5,-13.56587 -7.7,-3.99622 -17.82313,-8.4576 -22.49584,-9.91417 -4.67272,-1.45657 -12.77272,-3.29305 -18,-4.08106 -5.22729,-0.78801 -10.06666,-1.4354 -10.75416,-1.43864 -0.6875,-0.003 -1.25,-0.58197 -1.25,-1.28606 0,-0.70409 5.20836,-8.68652 11.57412,-17.73874 6.36577,-9.05223 17.25252,-25.46365 24.19278,-36.46984 6.94027,-11.00619 19.34577,-31.03626 27.56779,-44.51126 8.22202,-13.475 17.60105,-28.71109 20.84229,-33.85797 5.89317,-9.35796 5.89317,-9.35796 4.02731,-12.5 -1.02622,-1.72812 -12.6779,-20.69203 -25.89263,-42.14203 -13.21473,-21.45 -32.03158,-52.05 -41.81522,-68 -9.78364,-15.95 -30.15099,-49.25 -45.26078,-74 -15.10978,-24.75 -33.42548,-54.675 -40.70155,-66.5 -7.27607,-11.825 -18.8457,-30.725 -25.71029,-42 -6.86458,-11.275 -18.28136,-30.03933 -25.3706,-41.69851 -7.08924,-11.65918 -12.97204,-21.10918 -13.07288,-21 -0.10083,0.10918 -12.53529,20.67351 -27.63211,45.69851 -15.09683,25.025 -37.20749,61.62301 -49.1348,81.32891 -13.8266,22.84385 -21.03863,35.64353 -19.89972,35.31742 0.98246,-0.28131 9.66129,-0.77381 19.28629,-1.09444 9.625,-0.32063 28.075,-0.75282 41,-0.96041 12.925,-0.2076 29.575,0.0127 37,0.48958 7.425,0.47687 18.45,1.5656 24.5,2.4194 6.05,0.8538 13.99701,2.44113 17.66002,3.52741 3.66301,1.08627 9.73014,3.35251 13.48251,5.03608 3.75236,1.68357 10.45389,5.4773 14.89228,8.4305 4.43839,2.9532 11.42725,8.88758 15.53079,13.18751 4.10353,4.29992 9.63634,11.09451 12.29512,15.09908 2.65878,4.00458 7.04245,11.61845 9.74149,16.91972 2.69904,5.30127 6.43928,14.3998 8.31163,20.21895 1.87236,5.81916 4.57374,15.82525 6.00309,22.23576 1.42934,6.41051 3.47939,17.43551 4.55567,24.5 1.07628,7.06449 2.47942,19.14453 3.11809,26.84453 0.71227,8.58738 0.94684,23.47208 0.60674,38.5 -0.30497,13.475 -1.2627,30.575 -2.12829,38 -0.86559,7.425 -2.49771,19.125 -3.62692,26 -1.12921,6.875 -3.13946,16.55 -4.46721,21.5 -1.32775,4.95 -3.53437,11.85081 -4.9036,15.33513 -1.36924,3.48433 -4.34943,9.78433 -6.62264,14 -2.27322,4.21568 -6.30316,10.58987 -8.95542,14.16487 -2.65226,3.575 -8.34828,9.9089 -12.65782,14.07534 -4.30954,4.16643 -10.53553,9.39325 -13.83553,11.61514 -3.3,2.2219 -9.6,5.84706 -14,8.0559 -4.4,2.20885 -11.6,5.14967 -16,6.53516 -4.4,1.38549 -12.45365,3.07783 -17.897,3.76074 -7.34016,0.92089 -25.74724,1.1128 -71.25,0.74283 -33.74415,-0.27436 -61.353,-0.26352 -61.353,0.0241 0,0.28762 2.11214,3.9357 4.69365,8.10687 2.5815,4.17116 25.15294,39.75893 50.15874,79.08393 25.0058,39.325 47.02577,73.85255 48.93326,76.7279 3.46816,5.2279 3.46816,5.2279 20.15374,-21 9.17707,-14.42535 24.11372,-37.7029 33.19256,-51.7279 9.07884,-14.025 28.79295,-44.5125 43.80914,-67.75 C 615.24325,684 615.24325,684 620.47371,684 c 2.87676,0 9.85101,1.16517 15.49833,2.58927 5.64733,1.4241 13.92461,4.15442 18.39397,6.06739 4.46935,1.91296 10.49037,4.83081 13.38004,6.48412 2.88967,1.6533 5.25395,3.58809 5.25395,4.29953 0,0.71145 -8.00418,13.39092 -17.78706,28.17661 -9.78288,14.7857 -27.43702,41.50808 -39.23141,59.38308 -11.79439,17.875 -33.88475,51.175 -49.08969,74 -15.20493,22.825 -37.63617,55.7875 -49.84719,73.25 -12.21101,17.4625 -22.7387,31.75 -23.39486,31.75 -0.65616,0 -14.06914,-19.0125 -29.80663,-42.25 z M 516.5,934.19707 c 12.1,-17.42615 30.56504,-44.51186 41.03343,-60.19048 10.46839,-15.67863 40.09792,-60.37706 65.84341,-99.32985 25.74548,-38.95279 46.65544,-70.93399 46.46657,-71.06933 -0.18888,-0.13534 -2.01605,-1.20343 -4.06038,-2.37353 -2.04434,-1.1701 -7.30487,-3.70496 -11.69007,-5.63302 -4.38521,-1.92807 -12.16257,-4.61991 -17.28303,-5.98189 -5.12046,-1.36198 -11.5626,-2.76054 -14.31585,-3.10791 -5.00593,-0.6316 -5.00593,-0.6316 -22.64661,26.67867 C 590.1451,728.21038 570.10782,759.175 555.3202,782 c -14.78763,22.825 -34.25121,53.0875 -43.2524,67.25 -10.3017,16.20871 -16.96173,25.75 -17.97409,25.75 -0.88455,0 -2.78348,-1.9125 -4.21985,-4.25 -1.43637,-2.3375 -22.82722,-35.975 -47.53523,-74.75 -24.70801,-38.775 -48.21581,-75.78583 -52.23956,-82.24629 -4.51124,-7.24318 -7.08403,-12.35052 -6.71108,-13.32241 0.48349,-1.25996 1.65864,-1.46761 5.85841,-1.03518 2.88948,0.29751 29.1036,0.81752 58.2536,1.15558 36.48603,0.42314 56.83799,0.25902 65.31765,-0.52673 6.7747,-0.62777 15.6774,-2.00068 19.78378,-3.05091 4.10637,-1.05023 11.23449,-3.67543 15.84025,-5.83376 4.60577,-2.15834 11.67807,-6.04514 15.71622,-8.63735 4.12688,-2.64916 11.72126,-9.18816 17.3421,-14.93209 6.17504,-6.31026 12.05486,-13.53973 15.37223,-18.90077 2.95473,-4.77498 7.09699,-12.87066 9.20504,-17.99039 2.10804,-5.11974 4.98255,-13.73373 6.38779,-19.14222 1.40525,-5.40848 3.65248,-17.52948 4.99385,-26.93554 1.34137,-9.40607 2.9978,-22.50194 3.68096,-29.10194 0.68316,-6.6 1.23507,-22.575 1.22646,-35.5 -0.009,-12.925 -0.57715,-28.9 -1.26343,-35.5 -0.68629,-6.6 -2.33854,-18.38668 -3.67167,-26.19262 -1.33313,-7.80593 -3.96062,-20.18093 -5.83887,-27.5 -1.87825,-7.31906 -4.39162,-15.78238 -5.58527,-18.80738 -1.19365,-3.025 -3.98164,-9.1 -6.19553,-13.5 -2.21389,-4.4 -6.5089,-11.81502 -9.54447,-16.47781 -3.03557,-4.6628 -8.49999,-11.57547 -12.14316,-15.3615 -3.64316,-3.78603 -9.32393,-8.8177 -12.62393,-11.18149 -3.3,-2.36379 -9.6,-6.07846 -14,-8.25482 -4.4,-2.17636 -10.925,-4.907 -14.5,-6.06808 -3.575,-1.16109 -10.775,-2.77783 -16,-3.59276 -5.225,-0.81493 -15.35,-2.00975 -22.5,-2.65516 -8.85079,-0.79894 -24.64971,-0.96994 -49.5,-0.53577 -20.075,0.35074 -41.1839,0.93271 -46.90866,1.29327 -9.95615,0.62707 -10.3867,0.57157 -9.90339,-1.27661 0.27791,-1.0627 8.52186,-15.19753 18.31991,-31.41073 9.79804,-16.2132 31.91675,-52.87854 49.15269,-81.47854 17.23593,-28.6 32.03227,-52.45 32.88075,-53 1.16312,-0.75396 1.96292,-0.44656 3.25069,1.24941 0.93941,1.23718 9.54684,15.18718 19.12764,31 9.58079,15.81283 25.15562,41.35059 34.61073,56.75059 9.45511,15.4 32.03289,52.3 50.17284,82 18.13995,29.7 51.72762,84.4803 74.63926,121.73401 C 697.25411,498.48772 716,529.39218 716,529.91061 c 0,0.51842 -2.16933,4.23811 -4.82074,8.26598 -2.65141,4.02788 -10.82736,17.22341 -18.16878,29.32341 -7.34142,12.1 -18.95847,31 -25.81567,42 -6.8572,11 -17.36795,27.2 -23.35722,36 -5.98927,8.8 -12.4375,18.05852 -14.32939,20.57448 -3.4398,4.57448 -3.4398,4.57448 5.34235,5.74374 4.83018,0.6431 13.02729,2.46012 18.2158,4.03782 5.18851,1.5777 11.90865,3.98587 14.93365,5.35148 3.025,1.36561 11.31127,5.74517 18.41393,9.73235 7.10266,3.98719 17.67766,10.18376 23.5,13.77018 5.82234,3.58641 13.51107,8.58076 17.08607,11.09856 3.575,2.51779 9.53872,7.49087 13.25271,11.05128 3.714,3.56041 8.14894,8.6493 9.85544,11.30865 1.7065,2.65935 3.95528,7.57444 4.99729,10.92242 1.07239,3.44558 1.88815,8.97783 1.87978,12.74813 -0.008,3.6635 -0.67992,9.48203 -1.49286,12.93007 -0.81295,3.44803 -2.65946,8.62303 -4.10337,11.5 -1.44391,2.87696 -4.13456,7.09125 -5.97923,9.36508 -1.84467,2.27383 -5.75328,5.72683 -8.68582,7.67333 -2.93253,1.9465 -8.23259,4.52319 -11.7779,5.72596 -4.58264,1.5547 -9.04773,2.21745 -15.44604,2.29264 -5.85689,0.0688 -10.93713,-0.48262 -14.54678,-1.57905 -3.05073,-0.92666 -8.28714,-3.45601 -11.63647,-5.62079 -3.46753,-2.24117 -7.44778,-5.90987 -9.2437,-8.52016 -1.73471,-2.52131 -3.8108,-6.44572 -4.61353,-8.72091 C 668.65678,784.61007 668,780.1617 668,777 c 0,-3.1617 0.67426,-7.65961 1.49836,-9.99536 1.16977,-3.31546 1.20668,-4.00473 0.16832,-3.14297 -0.73153,0.60711 -2.55008,3.34544 -4.04123,6.08516 -1.49114,2.73973 -2.98081,7.25805 -3.31038,10.04071 -0.40199,3.39421 -0.0196,7.20049 1.16172,11.56479 0.96851,3.57797 3.42838,9.07991 5.46638,12.22653 2.038,3.14663 6.27991,8.06914 9.42647,10.93892 3.14657,2.86978 8.96312,6.80051 12.92569,8.73497 3.96257,1.93445 9.88671,4.19895 13.16477,5.03222 3.27805,0.83327 10.06857,1.51503 15.09004,1.51503 5.82448,0 11.9937,-0.72382 17.0399,-1.99925 4.35048,-1.09959 11.2777,-3.65118 15.39382,-5.6702 5.72366,-2.80755 9.63136,-5.80652 16.61445,-12.75075 6.0587,-6.025 10.69858,-11.77131 13.79115,-17.0798 2.56331,-4.4 5.74205,-11.40863 7.06388,-15.57474 1.32182,-4.1661 2.90314,-11.22529 3.51405,-15.68708 0.78322,-5.72033 0.8091,-10.51789 0.0878,-16.27056 -0.56262,-4.48701 -2.31789,-11.91509 -3.9006,-16.50683 -1.5827,-4.59174 -5.05546,-11.84278 -7.71724,-16.11343 -2.66178,-4.27065 -8.01159,-11.1197 -11.88846,-15.22011 -3.87688,-4.10042 -10.49691,-10.02334 -14.71118,-13.16205 -4.21427,-3.13871 -12.76427,-8.65284 -19,-12.25361 -6.23573,-3.60078 -15.30507,-8.49643 -20.15409,-10.87923 -7.2802,-3.57747 -8.74973,-4.68326 -8.43381,-6.34623 0.21042,-1.10762 5.70667,-10.71146 12.21389,-21.34185 11.13566,-18.19155 11.98433,-19.29714 14.43382,-18.80345 1.43137,0.2885 8.4525,2.54656 15.6025,5.01791 7.15,2.47136 18.175,5.52438 24.5,6.7845 9.12327,1.81762 14.60008,2.27202 26.5,2.19868 11.95627,-0.0737 16.62332,-0.52682 23,-2.23309 4.4,-1.17734 11.15,-3.64365 15,-5.48068 3.85,-1.83703 9.86926,-5.51068 13.37613,-8.16368 3.50687,-2.65299 8.82454,-7.78032 11.81704,-11.39405 2.9925,-3.61373 6.96632,-9.72724 8.8307,-13.58559 1.86438,-3.85834 4.07756,-9.93334 4.91817,-13.5 0.84062,-3.56665 1.53505,-10.76887 1.54318,-16.00493 0.0102,-6.57558 -0.62367,-11.83359 -2.04942,-17 -1.13532,-4.11394 -3.68325,-10.4049 -5.66208,-13.9799 -2.10939,-3.81088 -6.94392,-9.8484 -11.68579,-14.59358 -6.06964,-6.07389 -9.9595,-9.00227 -15.58793,-11.73497 -4.125,-2.00276 -10.2,-4.34173 -13.5,-5.19771 -3.50372,-0.90882 -10.16047,-1.55299 -16,-1.54831 -5.7504,0.005 -12.54976,0.66599 -16,1.55633 -3.3,0.85157 -9.26443,3.14208 -13.2543,5.09002 -3.98986,1.94795 -9.9,5.99118 -13.13365,8.98497 -3.23365,2.99379 -6.33424,5.44325 -6.89021,5.44325 -0.55597,0 -3.49543,-4.3875 -6.53215,-9.75 -3.03671,-5.3625 -8.03419,-14.00189 -11.10549,-19.19865 C 744.51289,480.85459 742,476.1223 742,475.53514 c 0,-0.58716 5.25359,-2.07811 11.67463,-3.31323 6.42105,-1.23511 17.02748,-4.03537 23.56984,-6.22278 6.54237,-2.18741 16.01793,-6.10642 21.05682,-8.7089 5.03888,-2.60248 12.58897,-7.31438 16.77798,-10.47089 4.189,-3.15651 10.36446,-8.67683 13.72324,-12.26738 3.35879,-3.59055 7.98412,-9.29263 10.27852,-12.67128 2.2944,-3.37866 5.90966,-9.85184 8.0339,-14.38485 2.12424,-4.53302 4.86019,-12.23649 6.07988,-17.11884 1.74774,-6.99606 2.20437,-11.63154 2.15502,-21.87699 -0.0482,-10.01615 -0.55695,-14.83622 -2.21637,-21 -1.18457,-4.4 -3.96857,-11.79609 -6.18667,-16.43576 -2.21809,-4.63967 -6.31004,-11.50747 -9.09323,-15.26178 -2.78318,-3.75431 -8.50131,-10.0155 -12.70695,-13.91375 C 820.68188,297.75029 807.30515,288.0373 793,278.5467 c -14.94767,-9.91688 -27.51022,-19.06835 -32.22066,-23.47187 -4.24636,-3.96967 -9.82607,-10.38458 -12.39935,-14.25536 -2.57329,-3.87077 -6.06163,-10.47615 -7.75187,-14.67862 -2.80048,-6.96288 -3.0756,-8.66124 -3.10064,-19.14085 -0.0248,-10.38161 0.22784,-12.03488 2.59791,-17 1.44396,-3.025 4.27119,-7.38874 6.28273,-9.6972 2.15797,-2.47651 6.48356,-5.6111 10.55122,-7.64607 3.79163,-1.89687 10.13267,-4.02767 14.09119,-4.7351 5.68754,-1.01642 8.65032,-1.03707 14.124,-0.0984 3.80968,0.65328 8.64383,2.06381 10.74255,3.1345 2.09872,1.07069 5.19984,3.11124 6.89136,4.53457 1.69153,1.42332 4.45162,5.34171 6.13353,8.70752 2.57288,5.14878 3.05803,7.27823 3.05803,13.42242 0,4.86397 -0.67058,9.09505 -2.008,12.66962 -1.1044,2.95178 -3.61718,7.24683 -5.58396,9.54456 -1.96677,2.29774 -5.64388,5.38959 -8.17134,6.87078 -2.52747,1.4812 -6.65219,3.27958 -9.16605,3.9964 -4.57065,1.30331 -4.57065,1.30331 1.42935,0.99665 3.7849,-0.19345 8.07482,-1.25987 11.62001,-2.88861 3.09101,-1.42007 7.47415,-4.25704 9.74032,-6.30439 2.26616,-2.04734 5.47455,-6.48652 7.12974,-9.86483 1.6552,-3.37832 3.4935,-8.79013 4.08512,-12.02625 0.59161,-3.23613 0.76341,-8.18613 0.38176,-11 C 821.0753,186.80226 819.846,182.025 818.72517,179 c -1.12083,-3.025 -3.08006,-7.15882 -4.35384,-9.18627 -1.27378,-2.02745 -4.24092,-5.53971 -6.59364,-7.80501 -2.35273,-2.26531 -6.97769,-5.44161 -10.27769,-7.05845 -3.3,-1.61684 -8.42392,-3.39209 -11.38649,-3.94499 C 783.15094,150.45238 777.93542,150 774.52347,150 c -3.41195,0 -9.76303,0.90092 -14.11351,2.00205 -4.35048,1.10112 -10.83496,3.44427 -14.40996,5.20699 -4.46857,2.20332 -9.00483,5.71861 -14.51476,11.24796 -5.37702,5.39597 -9.23471,10.37711 -11.7216,15.1352 -2.03877,3.90071 -4.39463,9.73276 -5.23525,12.9601 -0.84061,3.22734 -1.52839,9.07637 -1.52839,12.99784 0,3.92146 0.85428,10.46442 1.8984,14.5399 1.04412,4.07548 3.09347,10.1085 4.5541,13.40672 1.46064,3.29822 4.0728,8.24822 5.80482,11 1.73202,2.75178 5.19247,7.70324 7.68989,11.00324 2.49742,3.3 15.29581,17.02151 28.44086,30.49225 13.14505,13.47074 26.13776,27.64574 28.87268,31.5 2.73492,3.85426 6.47924,10.11199 8.3207,13.90606 1.84147,3.79406 4.0984,10.27066 5.01541,14.39243 1.16541,5.23834 1.50414,9.93459 1.12529,15.6017 -0.3119,4.66569 -1.50693,10.7414 -2.81498,14.31174 -1.25015,3.4123 -4.35669,9.2623 -6.90342,13 -2.54674,3.7377 -7.52693,9.1558 -11.06709,12.04022 -3.54016,2.88443 -10.48666,7.26973 -15.43666,9.74511 -4.95,2.47539 -13.4452,5.62791 -18.87822,7.0056 C 742.55367,423.28742 737.0775,424 730.37178,424 725.20541,424 721,423.57921 721,423.06226 c 0,-0.51576 3.00091,-5.35326 6.66868,-10.75 3.66777,-5.39674 8.4073,-13.50956 10.53227,-18.02848 2.12498,-4.51892 4.817,-11.71892 5.98227,-16 1.71264,-6.29201 2.12201,-10.65855 2.13604,-22.78378 0.01,-8.25 -0.55591,-18.6 -1.25657,-23 -0.70066,-4.4 -2.38018,-11.825 -3.73226,-16.5 -1.35207,-4.675 -4.45842,-12.55 -6.90299,-17.5 -2.44457,-4.95 -7.46764,-13.21921 -11.16237,-18.37602 -3.69474,-5.15681 -10.74026,-13.6264 -15.65671,-18.82132 -4.91646,-5.19491 -13.25212,-13.0484 -18.52369,-17.4522 C 683.8131,239.44666 675,232.62683 669.5,228.69527 c -5.5,-3.93155 -15.85,-10.66758 -23,-14.96894 -7.15,-4.30137 -18.4,-10.45328 -25,-13.67093 -6.6,-3.21764 -15.85573,-7.40318 -20.56829,-9.3012 -8.5683,-3.45094 -8.5683,-3.45094 4.5,17.3315 13.06829,20.78245 13.06829,20.78245 22.99438,28.31144 5.45935,4.14095 14.77585,11.82823 20.70334,17.08285 5.92749,5.25462 14.38768,13.58061 18.80042,18.50221 4.41274,4.92159 10.10258,11.77305 12.64411,15.22546 2.54152,3.45242 6.37711,9.28409 8.52353,12.95927 2.14643,3.67518 5.2571,10.06489 6.91262,14.19935 1.65552,4.13446 3.73105,11.00369 4.6123,15.26494 1.16449,5.63088 1.48008,11.17958 1.15504,20.30826 -0.4013,11.27065 -0.79793,13.48475 -3.86234,21.56052 -2.60144,6.85569 -3.89162,9.06174 -5.41511,9.25911 -1.47722,0.19139 -2.81023,-1.11557 -5.09967,-5 C 685.69551,372.8666 672.60616,351.375 658.31288,328 644.0196,304.625 628.59552,279.425 624.03713,272 c -4.55838,-7.425 -18.31011,-29.7 -30.55939,-49.5 -12.24929,-19.8 -34.39189,-55.8 -49.20579,-80 -14.81389,-24.2 -32.23798,-52.629536 -38.72018,-63.176747 -11.78584,-19.176748 -11.78584,-19.176748 -20.02154,-5.5 -4.52963,7.522211 -20.67216,33.381037 -35.87227,57.464067 -15.20012,24.08303 -28.75609,45.43484 -30.12439,47.44847 -2.32528,3.42195 -3.1998,3.84006 -13.38582,6.39967 -5.9939,1.5062 -16.2417,4.84856 -22.77288,7.42748 -6.53118,2.57892 -17.21779,7.36352 -23.74802,10.63244 -6.53024,3.26893 -16.43024,8.76101 -22,12.20463 -5.56977,3.44362 -13.72685,8.82978 -18.12685,11.96923 -4.4,3.13946 -13.3328,10.3032 -19.85067,15.91943 C 293.13145,248.9049 283.75155,258 278.8051,263.5 c -4.94645,5.5 -12.5073,15.28304 -16.80188,21.74008 -4.29458,6.45704 -9.26415,15.23204 -11.0435,19.5 -1.77935,4.26796 -4.02,10.49746 -4.97923,13.84334 -0.95923,3.34589 -2.06199,9.24936 -2.45059,13.11884 -0.42262,4.20828 -0.22682,10.20016 0.48727,14.91101 0.65659,4.33157 2.05665,10.18174 3.11123,13.00037 1.05458,2.81862 3.65132,7.54613 5.77053,10.50556 2.30293,3.21601 7.06604,7.69413 11.83916,11.1308 4.39233,3.1625 8.20516,5.75 8.47294,5.75 0.26779,0 3.95446,-5.59804 8.19261,-12.44008 7.70572,-12.44009 7.70572,-12.44009 6.47279,-16.75 -0.6781,-2.37046 -1.20551,-9.48492 -1.17201,-15.80992 0.0478,-9.02857 0.61854,-13.62501 2.65566,-21.38805 1.42712,-5.43843 5.01794,-14.88843 7.97961,-21 2.96167,-6.11157 8.25933,-15.16015 11.77258,-20.10794 3.51325,-4.9478 11.33773,-13.98344 17.38773,-20.0792 6.05,-6.09576 15.27673,-14.46684 20.50384,-18.60238 5.22711,-4.13555 14.45211,-10.90569 20.5,-15.04476 6.04789,-4.13907 15.39958,-10.05731 20.78154,-13.15163 5.38196,-3.09432 10.66946,-5.62604 11.75,-5.62604 1.08054,0 1.96462,0.44742 1.96462,0.99428 0,0.54685 -8.18196,14.60935 -18.18213,31.25 -10.00017,16.64064 -37.69171,62.15168 -61.53674,101.13564 -23.84504,38.98396 -43.2117,71.02284 -43.03702,71.19753 0.17469,0.17468 4.35372,0.62019 9.28675,0.99001 5.12702,0.38437 13.59708,0.17213 19.7727,-0.49546 5.94196,-0.64233 14.71696,-2.29823 19.5,-3.67977 4.78304,-1.38154 11.95859,-4.07671 15.94566,-5.98927 6.82345,-3.27313 7.59074,-3.98911 13.0638,-12.19017 3.19802,-4.79203 10.66361,-16.70029 16.5902,-26.46279 9.65054,-15.89671 11.05342,-17.74771 13.4362,-17.72804 1.46332,0.0121 4.68558,0.93754 7.16058,2.05658 2.475,1.11904 5.95241,3.43765 7.72757,5.15246 1.77516,1.71482 4.02516,5.40186 5,8.19342 C 408.3935,366.19504 408.5,375.4526 408.5,515.5 c 0,140.66597 -0.1007,149.32592 -1.80029,154.8269 -1.15962,3.75326 -3.21406,7.36066 -5.77295,10.13673 -2.18496,2.37041 -6.22546,5.27896 -8.97889,6.46345 -2.75342,1.18449 -7.8056,2.39912 -11.22705,2.69916 C 374.5,690.17179 374.5,690.17179 363.03775,671.83589 356.73351,661.75115 342.28335,638.875 330.92627,621 319.56919,603.125 302.11471,575.73679 292.13852,560.13732 282.16233,544.53784 274,531.18838 274,530.47185 c 0,-0.71653 14.24293,-25.07832 31.65096,-54.13732 17.40803,-29.05899 32.30434,-53.83873 33.10292,-55.06608 1.45196,-2.23155 1.45196,-2.23155 -4.28895,-0.25638 -3.1575,1.08633 -9.61631,2.75659 -14.35292,3.71167 -6.72211,1.35544 -13.65934,1.73028 -31.61201,1.7081 -17.68779,-0.0219 -25.30966,-0.44449 -33,-1.82984 -5.5,-0.99078 -14.275,-3.15051 -19.5,-4.79941 -5.225,-1.6489 -13.55,-5.09153 -18.5,-7.65029 -7.01577,-3.62661 -10.87612,-6.5263 -17.50962,-13.1523 -5.58659,-5.58027 -9.44823,-10.44796 -11.24212,-14.17096 -1.50288,-3.11903 -3.41105,-8.27607 -4.24038,-11.4601 C 183.67855,370.18492 183,364.59633 183,360.94986 c 0,-3.64646 0.86934,-10.029 1.93186,-14.18342 1.06252,-4.15442 3.26397,-10.18891 4.89212,-13.40997 1.62814,-3.22106 5.06373,-8.71089 7.63465,-12.19962 2.57091,-3.48873 14.66866,-16.53873 26.8839,-29 12.21523,-12.46127 24.80664,-25.88302 27.9809,-29.82611 3.17425,-3.94309 8.00407,-10.88411 10.73292,-15.42449 2.72884,-4.54038 6.35974,-12.56421 8.06866,-17.83074 2.58097,-7.95402 3.10864,-11.18421 3.1161,-19.07551 0.007,-7.19788 -0.52728,-11.07513 -2.20401,-16 -1.21714,-3.575 -3.79786,-9.11525 -5.73491,-12.31167 -1.93706,-3.19641 -5.97427,-8.46049 -8.97158,-11.69795 -2.99732,-3.23746 -8.33508,-7.70859 -11.86171,-9.93586 -3.52662,-2.22726 -9.86661,-5.20923 -14.08887,-6.62659 -4.69466,-1.57595 -11.01824,-2.79164 -16.27843,-3.12947 -6.27811,-0.40322 -10.3574,-0.10269 -15.1016,1.11256 -3.575,0.91575 -8.42878,2.59592 -10.78618,3.73371 -2.35741,1.13779 -6.74077,4.31207 -9.74082,7.05394 -3.74961,3.42693 -6.60379,7.31039 -9.13096,12.42376 -3.06398,6.19954 -3.75421,8.78407 -4.14396,15.51684 -0.26617,4.59787 0.0658,10.50876 0.77063,13.71952 0.68105,3.10267 2.40134,7.80281 3.82286,10.44476 1.42152,2.64196 4.28379,6.33869 6.3606,8.21496 2.07681,1.87628 6.0648,4.57122 8.8622,5.98877 3.39229,1.71901 7.31742,2.73592 11.7859,3.05348 6.69973,0.47612 6.69973,0.47612 2.12908,-0.8422 -2.51386,-0.72507 -6.63858,-2.53019 -9.16605,-4.01139 -2.52746,-1.48119 -6.20457,-4.57304 -8.17134,-6.87078 -1.96678,-2.29773 -4.52318,-6.6884 -5.6809,-9.75704 -1.68466,-4.46535 -2.02404,-7.17914 -1.69974,-13.59174 0.3274,-6.47396 0.96449,-9.03997 3.31804,-13.36422 1.60206,-2.94351 4.76494,-6.8695 7.02864,-8.72443 2.26369,-1.85492 6.08499,-4.06736 8.49178,-4.91652 2.40678,-0.84917 7.54268,-1.80155 11.4131,-2.11642 4.77297,-0.38829 9.21575,-0.0597 13.80844,1.0213 3.72423,0.87659 8.44923,2.45875 10.5,3.51593 2.05077,1.05718 5.62861,3.56074 7.95075,5.56347 2.67622,2.3081 5.58059,6.39009 7.9325,11.14885 3.14423,6.36192 3.77625,8.76179 4.14184,15.72704 0.29158,5.55533 -0.0934,10.31628 -1.18761,14.68845 -0.89046,3.55792 -3.39614,10.06894 -5.56818,14.46894 -2.17204,4.4 -5.97281,10.44507 -8.44616,13.4335 -2.47334,2.98842 -7.55642,8.09935 -11.29573,11.35761 -3.7393,3.25826 -17.23335,12.8462 -29.98677,21.30653 -16.59556,11.0091 -25.77381,17.84309 -32.28306,24.03749 -5.16004,4.91045 -11.45222,12.19776 -14.54329,16.84335 -2.99656,4.50354 -6.52526,10.62574 -7.84156,13.60489 -1.31631,2.97915 -3.3986,9.43306 -4.62733,14.34204 -1.93561,7.7331 -2.16968,10.73878 -1.75217,22.5 0.28667,8.07579 1.1467,15.946 2.12308,19.42875 0.90267,3.21979 2.9952,9.10658 4.65007,13.08175 1.65487,3.97518 5.23461,10.61799 7.95498,14.7618 2.72038,4.14382 8.19305,10.78113 12.1615,14.74958 3.96846,3.96845 9.9765,9.18566 13.35121,11.59381 3.37471,2.40814 9.70406,6.36847 14.06522,8.80073 4.36117,2.43226 11.97939,6.02699 16.92939,7.98829 4.95,1.9613 13.5,4.69134 19,6.06675 5.5,1.37541 12.5875,3.00569 15.75,3.62284 4.53925,0.88581 5.75,1.51411 5.75,2.98387 0,1.02399 -4.44725,10.32958 -9.88277,20.67911 -5.76508,10.97703 -10.55659,18.95202 -11.5,19.14063 -0.88948,0.17783 -1.61723,-0.0714 -1.61723,-0.55395 0,-0.48251 -3.04538,-3.1925 -6.76751,-6.02221 -3.72213,-2.82971 -9.38704,-6.34419 -12.58868,-7.80995 -3.20164,-1.46576 -8.14376,-3.28342 -10.98249,-4.03925 -2.83873,-0.75582 -9.43632,-1.37291 -14.66132,-1.37131 -5.225,0.002 -12.34517,0.67366 -15.82259,1.49346 -3.47743,0.8198 -9.56731,3.07274 -13.53307,5.00653 -3.96576,1.93379 -9.51699,5.41889 -12.33607,7.74467 -2.81907,2.32578 -7.16576,6.71774 -9.6593,9.75992 -2.49354,3.04217 -5.90785,8.3008 -7.58734,11.68585 -1.6795,3.38504 -3.73646,8.77098 -4.57104,11.96877 -0.83457,3.19778 -1.79349,8.77091 -2.13092,12.38473 -0.41257,4.4185 -0.0634,9.3315 1.066,15 1.00781,5.05819 3.3125,11.75341 5.76263,16.7407 2.89116,5.88503 6.26112,10.62652 11.54404,16.24229 4.10351,4.36206 10.76599,10.14157 14.80549,12.84336 4.03951,2.70179 10.85853,6.25831 15.15337,7.90339 4.29484,1.64507 10.5088,3.58237 13.8088,4.30511 3.3,0.72273 11.625,1.31406 18.5,1.31406 6.875,0 15.2,-0.57313 18.5,-1.27362 3.3,-0.7005 9.6,-2.4333 14,-3.85068 4.4,-1.41737 11.15,-4.13824 15,-6.04638 3.85,-1.90814 9.6032,-5.03684 12.78489,-6.95267 3.18169,-1.91584 6.34074,-3.27004 7.02011,-3.00934 0.67937,0.2607 6.96367,9.75343 13.96511,21.09497 7.00144,11.34154 12.71838,21.40786 12.70431,22.3696 -0.0177,1.21269 -4.53135,4.20054 -14.7268,9.74863 -8.08568,4.4 -20.11167,11.57551 -26.72442,15.94557 -7.427,4.90816 -15.30801,11.21574 -20.61593,16.5 -4.72601,4.70494 -10.52036,11.42596 -12.87634,14.9356 -2.35598,3.50964 -6.01836,10.08305 -8.13863,14.60758 -2.12026,4.52452 -4.6182,11.328 -5.55098,15.11883 -1.07302,4.36078 -1.67932,10.74915 -1.65066,17.39242 0.0281,6.51685 0.68936,12.96576 1.74313,17 0.93382,3.575 3.43554,10.1 5.55938,14.5 2.12384,4.4 6.37102,11.02768 9.43817,14.72817 3.06715,3.7005 8.38734,8.96798 11.82265,11.70552 3.43531,2.73754 9.39601,6.58107 13.24601,8.54118 3.85,1.9601 10.15,4.48057 14,5.60104 3.85,1.12046 11.275,2.28462 16.5,2.58702 6.79512,0.39326 11.38534,0.10501 16.12163,-1.0124 3.64189,-0.85921 9.04189,-2.64272 12,-3.96336 2.9581,-1.32063 8.25583,-4.57748 11.77271,-7.23743 3.51689,-2.65995 8.32631,-7.46066 10.6876,-10.66824 2.36128,-3.20758 5.26801,-8.40811 6.45939,-11.55673 1.33139,-3.51864 2.17434,-8.04623 2.18741,-11.74882 0.0143,-4.04371 -0.70771,-7.71857 -2.19621,-11.1787 -1.21961,-2.83505 -3.08268,-5.93765 -4.14017,-6.89466 -1.89004,-1.71047 -1.89552,-1.66498 -0.32287,2.6787 1.12433,3.1054 1.43784,6.26979 1.05484,10.64677 -0.31452,3.59434 -1.62823,8.51787 -3.10659,11.64286 -1.40889,2.97814 -4.60842,7.30148 -7.11007,9.60742 -2.50165,2.30594 -7.4158,5.53441 -10.92034,7.17438 -3.50453,1.63997 -9.32358,3.39978 -12.93122,3.91068 -4.15555,0.5885 -9.1074,0.56754 -13.5124,-0.0572 -3.82418,-0.54237 -8.88595,-1.74273 -11.24838,-2.66748 -2.36243,-0.92475 -6.14946,-2.93572 -8.41561,-4.46883 -2.26616,-1.53311 -6.18328,-5.08202 -8.70472,-7.88647 -2.52144,-2.80445 -5.72757,-7.51538 -7.12473,-10.46875 -1.39717,-2.95336 -3.04344,-7.71582 -3.6584,-10.58325 -0.61495,-2.86742 -0.93332,-9.31253 -0.70749,-14.32246 0.3168,-7.02782 0.98974,-10.36555 2.94539,-14.60896 1.39413,-3.025 4.91187,-8.3548 7.81719,-11.844 2.90532,-3.4892 9.1683,-9.21928 13.91772,-12.7335 4.74943,-3.51423 13.82514,-9.07356 20.16825,-12.35406 6.34312,-3.28051 16.45029,-8.02475 22.46039,-10.54275 6.0101,-2.51801 11.50321,-4.35726 12.20692,-4.08722 0.70371,0.27003 2.93996,3.09435 4.96944,6.27625 2.02949,3.1819 17.03798,26.26028 33.3522,51.28528 16.31422,25.025 42.38342,64.85 57.93156,88.5 15.54814,23.65 40.87776,61.5625 56.28806,84.25 15.4103,22.6875 28.29767,41.22322 28.63861,41.19048 C 494.22105,965.90774 504.4,951.62321 516.5,934.19707 Z M 459.66667,657.33333 C 459.3,656.96667 459,594.46915 459,518.44996 c 0,-138.2167 0,-138.2167 2.25,-138.81967 1.2375,-0.33164 9.80647,-0.60913 19.04216,-0.61664 11.13124,-0.009 19.25638,0.49535 24.10185,1.49621 4.02034,0.83042 10.15119,2.66446 13.62413,4.07564 3.47293,1.41118 8.6021,4.03802 11.39814,5.83742 2.79605,1.79941 7.37388,5.34203 10.17298,7.87251 2.79909,2.53047 7.4456,8.00944 10.32558,12.17548 2.87999,4.16605 6.73018,10.82688 8.55598,14.80186 1.8258,3.97498 4.50574,11.00711 5.95541,15.62697 1.44967,4.61986 3.48769,12.26986 4.52893,17 1.04124,4.73014 2.6888,14.45026 3.66125,21.60026 1.33095,9.78591 1.78043,20.04628 1.81799,41.5 0.0306,17.49455 -0.45434,32.74772 -1.25589,39.5 -0.71818,6.05 -2.20379,15.66643 -3.30136,21.36985 -1.09757,5.70342 -3.36449,14.47842 -5.03761,19.5 -1.67311,5.02158 -5.04715,13.02917 -7.49785,17.79464 -2.45071,4.76547 -7.02439,11.72276 -10.16374,15.46066 -3.29649,3.92499 -8.96215,9.00959 -13.41082,12.03541 -4.45718,3.03162 -10.56064,6.12795 -14.48502,7.34837 -3.73016,1.16003 -10.38211,2.52916 -14.78211,3.04251 -4.4,0.51336 -16.1375,0.9368 -26.08333,0.94097 -9.94584,0.004 -18.38334,-0.29241 -18.75,-0.65908 z M 499,654.64189 c 7.85197,-0.3082 12.45917,-1.07138 18.26853,-3.02617 4.27269,-1.43771 9.67269,-3.81264 12,-5.27762 2.32731,-1.46497 5.96799,-4.05286 8.09039,-5.75085 2.12241,-1.69799 6.03623,-5.8213 8.69739,-9.16292 2.66115,-3.34162 6.6365,-9.41662 8.83411,-13.5 2.19761,-4.08338 5.38546,-11.583 7.08411,-16.66582 1.69864,-5.08282 3.95158,-13.40782 5.00652,-18.5 C 568.036,577.66633 569.64517,566.975 570.557,559 c 1.32178,-11.56057 1.55378,-20.37885 1.14445,-43.5 -0.34625,-19.55817 -1.05569,-32.57688 -2.17898,-39.98617 -0.91607,-6.04239 -3.17162,-16.84239 -5.01234,-24 -1.84071,-7.15761 -4.9507,-16.74796 -6.91109,-21.31189 -1.96038,-4.56394 -5.65949,-11.53894 -8.22024,-15.5 -2.56075,-3.96107 -7.43674,-9.90194 -10.83554,-13.20194 -3.39879,-3.3 -8.72348,-7.50958 -11.83265,-9.35461 -3.10917,-1.84504 -8.27802,-4.4149 -11.48634,-5.7108 -3.20833,-1.2959 -9.80523,-3.04882 -14.65978,-3.89538 C 495.70993,381.69264 488.48986,381 484.51989,381 c -3.96998,0 -10.66103,0.29103 -14.86901,0.64674 C 462,382.29347 462,382.29347 462,518.6078 c 0,136.31433 0,136.31433 8.75,136.60327 4.8125,0.15891 10.775,0.18858 13.25,0.0659 2.475,-0.12264 9.225,-0.40845 15,-0.63512 z M 502,521 c 0,-87.31401 0.20389,-102 1.4161,-102 0.77885,0 3.82993,2.66738 6.78018,5.92751 2.95025,3.26013 7.34819,9.39526 9.77319,13.63362 2.425,4.23836 5.95282,11.80848 7.8396,16.82249 1.88677,5.01401 4.46809,13.39138 5.73626,18.61638 1.26818,5.225 2.86981,13.775 3.55919,19 0.68938,5.225 1.25269,19.175 1.25181,31 -8.9e-4,11.825 -0.55345,25.325 -1.22792,30 -0.67446,4.675 -2.32723,12.69494 -3.67282,17.82209 -1.34558,5.12715 -3.82266,12.77715 -5.50461,17 -1.68195,4.22285 -4.86226,10.72916 -7.06735,14.45847 -2.20509,3.72931 -6.73259,9.69181 -10.0611,13.25 C 507.49402,620.08875 504.14728,623 503.38534,623 502.21394,623 502,607.24805 502,521 Z m 16.56399,80.76307 c 2.02131,-3.44469 5.16348,-9.95066 6.98258,-14.45772 1.81911,-4.50706 4.42241,-12.61598 5.78511,-18.01982 1.3627,-5.40384 3.03285,-15.2104 3.71145,-21.79234 0.78559,-7.61969 1.03054,-19.05595 0.67425,-31.48018 -0.36673,-12.7883 -1.25668,-23.47622 -2.58236,-31.01301 -1.11254,-6.325 -3.41239,-15.74698 -5.11079,-20.93773 -1.69839,-5.19076 -4.82146,-12.9011 -6.94014,-17.13411 -2.11869,-4.233 -5.65421,-10.33602 -7.85673,-13.56226 -2.20252,-3.22625 -5.1797,-6.95684 -6.61597,-8.29021 -2.61139,-2.42432 -2.61139,-2.42432 -2.57493,96 0.0365,98.42431 0.0365,98.42431 5.44444,92.68738 2.97439,-3.15531 7.06178,-8.55531 9.08309,-12 z M 791,597.2907 c -1.375,-0.24031 -6.1,-1.33869 -10.5,-2.44085 -4.4,-1.10215 -12.52795,-3.77032 -18.06211,-5.92925 -5.53416,-2.15894 -10.84916,-4.50084 -11.8111,-5.20423 -1.61251,-1.17909 -0.90098,-3.07278 9.11779,-24.26635 5.97672,-12.6431 12.7056,-25.69524 14.95305,-29.00476 2.24745,-3.30952 5.99188,-7.7389 8.32094,-9.84308 2.32907,-2.10417 7.10304,-5.16804 10.60881,-6.80859 4.70267,-2.20064 8.4062,-3.1216 14.12338,-3.51207 5.37646,-0.3672 9.65826,-0.0396 13.98389,1.06999 3.42906,0.87958 8.56643,2.78084 11.41637,4.22502 2.84994,1.44417 7.49843,4.94275 10.32998,7.77462 2.96257,2.96291 6.60674,8.10951 8.58363,12.12252 3.01568,6.1217 3.47738,8.09732 3.77922,16.17126 0.2431,6.5029 -0.14694,10.9053 -1.33131,15.02634 -0.92134,3.2058 -3.0362,7.96735 -4.6997,10.58123 -1.66349,2.61387 -5.23562,6.74044 -7.93805,9.17016 -2.70242,2.42972 -6.93246,5.39503 -9.40008,6.58958 -2.46761,1.19455 -6.8464,2.80014 -9.73064,3.56797 -3.27283,0.87128 -9.75486,1.34932 -17.24407,1.27174 -6.6,-0.0684 -13.125,-0.32093 -14.5,-0.56125 z m 28.0694,-2.71805 c 3.61317,-0.76594 8.71265,-2.40006 11.33217,-3.63139 2.61952,-1.23132 7.12547,-4.39814 10.01322,-7.03738 2.88775,-2.63924 6.66537,-7.45327 8.39471,-10.69784 1.79961,-3.37642 3.66939,-8.96161 4.37222,-13.0602 0.9608,-5.60291 0.96677,-8.40625 0.0275,-12.88437 -0.66027,-3.14786 -2.38288,-8.1401 -3.82802,-11.09387 -1.44515,-2.95376 -5.02185,-7.76479 -7.94823,-10.69117 -3.19257,-3.19257 -8.04293,-6.62729 -12.12682,-8.58744 -5.63458,-2.70445 -8.28617,-3.34012 -15.40441,-3.69294 -6.04189,-0.29947 -10.2433,0.052 -14.13125,1.1823 -3.04313,0.88466 -7.72391,3.111 -10.40172,4.94741 -2.67781,1.83642 -7.02262,5.99988 -9.65513,9.25214 -2.63251,3.25226 -6.99074,10.4152 -9.68496,15.91765 -2.69422,5.50245 -7.81171,16.17391 -11.37219,23.71437 -6.4736,13.70992 -6.4736,13.70992 3.68497,17.66506 5.58721,2.17533 12.83588,4.72641 16.10816,5.66907 3.27229,0.94265 9.12229,2.29026 13,2.99469 3.87772,0.70442 10.2004,1.31356 14.0504,1.35365 3.85,0.0401 9.95623,-0.5538 13.5694,-1.31974 z m -651.81824,0.98034 c -3.43687,-0.7848 -8.59349,-2.69278 -11.45915,-4.23995 -2.86567,-1.54717 -7.53576,-5.12989 -10.37798,-7.9616 -2.84222,-2.83171 -6.3292,-7.55671 -7.74884,-10.5 -1.41965,-2.94329 -3.09627,-8.38894 -3.72584,-12.10144 -0.86204,-5.08341 -0.85951,-8.38747 0.0103,-13.38206 0.63521,-3.64763 2.50695,-9.31039 4.15941,-12.58392 1.65247,-3.27352 4.8134,-7.91428 7.02428,-10.31281 2.21089,-2.39853 6.12285,-5.69605 8.69325,-7.32783 2.5704,-1.63178 7.11763,-3.68158 10.10495,-4.55512 2.98733,-0.87354 8.63028,-1.58826 12.5399,-1.58826 3.90962,0 9.75676,0.68981 12.99364,1.53291 3.23688,0.8431 8.1033,2.74013 10.81428,4.21563 2.71097,1.4755 6.94879,4.46057 9.41737,6.63351 2.46858,2.17293 5.50101,5.5634 6.73872,7.53437 1.23771,1.97097 6.82108,12.21601 12.40749,22.76675 5.5864,10.55074 10.1571,19.90367 10.1571,20.78429 0,0.90278 -3.38021,3.76945 -7.75,6.57256 -4.2625,2.73428 -11.04606,6.34585 -15.07457,8.02569 -4.02851,1.67984 -10.77851,3.93804 -15,5.01822 C 196.95394,595.16411 189,596.2576 183.5,596.5139 c -6.65553,0.31014 -12.08991,-0.0112 -16.24884,-0.96091 z M 202,591.224 c 3.575,-1.07045 8.975,-3.00496 12,-4.29892 3.025,-1.29396 8.425,-4.05941 12,-6.14545 3.575,-2.08604 7.36898,-4.46152 8.43108,-5.27886 1.87369,-1.44191 1.78731,-1.76114 -2.907,-10.74342 C 228.86314,559.66581 223.80276,550.1 220.27879,543.5 c -4.61633,-8.64584 -7.90752,-13.43755 -11.77473,-17.14304 -2.95212,-2.82868 -7.78982,-6.32818 -10.75045,-7.77668 -2.96062,-1.4485 -8.93664,-3.35834 -13.28004,-4.24408 -6.44534,-1.31439 -9.00713,-1.40402 -13.93533,-0.48752 -3.32103,0.61761 -8.82141,2.49307 -12.22306,4.16769 -3.83549,1.88821 -7.97689,5.0274 -10.90262,8.2642 -2.59479,2.87069 -6.10832,8.14443 -7.80785,11.71943 -2.77772,5.84301 -3.09079,7.46022 -3.09738,16 -0.007,8.56139 0.2994,10.14729 3.09722,16.05146 1.87848,3.96411 5.18374,8.59811 8.3693,11.73381 2.89561,2.8503 7.66288,6.31686 10.59393,7.70347 2.93105,1.38661 7.03986,2.95244 9.1307,3.47962 2.09084,0.52719 9.20152,0.78828 15.80152,0.58021 8.02742,-0.25307 14.15181,-1.02262 18.5,-2.32457 z m 290.50398,219.79958 c -0.36949,-2.18703 -2.41929,-7.59 -4.55511,-12.00659 -2.13581,-4.41659 -5.63942,-10.6147 -7.7858,-13.77358 -2.14637,-3.15887 -5.98613,-8.05953 -8.53278,-10.89034 C 469.08363,771.52226 467,768.79559 467,768.2938 c 0,-0.50179 2.48015,-3.05355 5.51144,-5.67058 3.0313,-2.61703 7.926,-7.76536 10.87711,-11.44073 2.95112,-3.67537 6.81393,-9.26999 8.58402,-12.43249 1.77009,-3.1625 3.61781,-5.75 4.10604,-5.75 0.48824,0 2.07847,2.3625 3.53386,5.25 1.45539,2.8875 4.61783,8.30905 7.02765,12.04788 2.40981,3.73883 7.07662,9.56931 10.37068,12.95662 3.29406,3.38731 5.9892,6.4985 5.9892,6.91374 0,0.41525 -2.06244,2.87708 -4.58319,5.47075 -2.52076,2.59367 -6.26634,7.22344 -8.32352,10.28838 -2.05718,3.06495 -5.12014,8.04763 -6.80658,11.07263 -1.68643,3.025 -4.07615,8.3125 -5.31047,11.75 -1.23432,3.4375 -2.81937,6.25 -3.52233,6.25 -0.71057,0 -1.57643,-1.76572 -1.94993,-3.97642 z m 5.85913,-10.43368 c 1.88303,-4.07556 5.43003,-10.48806 7.88223,-14.25 2.4522,-3.76195 6.46317,-8.97102 8.91328,-11.57572 4.45475,-4.73582 4.45475,-4.73582 0.55399,-8.5 -2.14541,-2.0703 -5.96051,-6.62936 -8.478,-10.13125 -2.51748,-3.50189 -6.01348,-9.05518 -7.76887,-12.34064 -3.19163,-5.97357 -3.19163,-5.97357 -8.05535,1.36707 -2.67505,4.03735 -8.51321,11.04993 -12.97368,15.5835 -7.94014,8.07027 -8.06895,8.27966 -6.15149,10 1.07715,0.96643 3.85464,4.23214 6.1722,7.25714 2.31755,3.025 6.03501,8.65 8.26103,12.5 2.22601,3.85 4.88063,9.3625 5.89914,12.25 1.01852,2.8875 1.9576,5.25 2.08685,5.25 0.12925,0 1.77565,-3.33455 3.65867,-7.4101 z M 647.3812,585.14909 c 0.36748,-4.868 2.9064,-29.5055 5.64205,-54.75 2.73564,-25.2445 4.97453,-46.01159 4.97532,-46.14909 7.9e-4,-0.1375 0.62214,-0.25 1.38078,-0.25 0.75865,0 8.88903,10.34381 18.06752,22.98625 10.37982,14.29716 16.41516,23.46396 15.96597,24.25 -0.3972,0.69506 -10.37242,15.10125 -22.16716,32.01375 -12.40963,17.7942 -22.09543,30.75 -22.98881,30.75 -1.32582,0 -1.44948,-1.24989 -0.87567,-8.85091 z m 23.72054,-26.56158 c 10.66904,-15.35187 19.29795,-28.25279 19.17536,-28.66871 -0.1226,-0.41591 -6.81548,-9.81241 -14.87308,-20.88109 -8.05759,-11.06869 -14.79654,-19.97853 -14.97542,-19.79964 -0.17889,0.17889 -2.35244,18.986 -4.83011,41.79359 -2.47767,22.80759 -4.80651,45.06834 -5.17519,49.46834 -0.43605,5.20383 -0.32947,7.65048 0.30492,7 0.53639,-0.55 9.70447,-13.56062 20.37352,-28.91249 z M 332,560.34467 c -9.075,-15.19583 -16.64094,-28.44303 -16.8132,-29.43823 -0.17225,-0.9952 1.8895,-5.09378 4.58168,-9.10795 2.69218,-4.01417 8.29895,-12.96809 12.45949,-19.89761 4.16054,-6.92952 8.29785,-14.01702 9.19401,-15.75 0.899,-1.73847 2.40232,-3.13011 3.3537,-3.10454 1.33462,0.0359 3.10814,4.16039 7.84736,18.25 3.36767,10.01201 7.18236,20.98403 8.4771,24.38227 2.35406,6.1786 2.35406,6.1786 0.16675,12.90622 -1.20302,3.70019 -3.86744,16.33232 -5.92093,28.0714 -2.98622,17.0712 -4.04513,21.34111 -5.28979,21.33049 C 349.0896,587.97847 342.24856,577.50559 332,560.34467 Z M 353.41697,562.5 c 1.93177,-11 4.34827,-22.44443 5.37,-25.43206 1.85769,-5.43205 1.85769,-5.43205 -1.11673,-13 -1.63593,-4.16237 -5.29785,-14.22057 -8.13758,-22.35156 -5.16317,-14.78362 -5.16317,-14.78362 -13.3168,-1 -4.48449,7.58099 -10.56104,17.36077 -13.50342,21.73283 -5.3498,7.94921 -5.3498,7.94921 10.71888,34.72659 8.83777,14.72756 16.15973,26.45041 16.27101,26.05079 0.11129,-0.39962 1.78287,-9.72659 3.71464,-20.72659 z M 490.05656,310.82547 c -1.89389,-3.94573 -5.97783,-10.58313 -9.07542,-14.74976 -3.09759,-4.16664 -8.41055,-10.13946 -11.80656,-13.27294 C 465.77856,279.6693 463,276.6692 463,276.13589 c 0,-0.53332 2.97773,-3.81956 6.61717,-7.30278 3.63944,-3.48321 8.42129,-8.97964 10.62633,-12.21428 2.20505,-3.23464 5.70544,-9.53464 7.77866,-14 2.07322,-4.46536 4.07712,-9.58133 4.45312,-11.36883 0.376,-1.7875 1.28559,-3.25 2.02131,-3.25 0.79237,0 1.76709,2.00225 2.39103,4.91159 0.57934,2.70138 1.91182,7.17092 2.96107,9.93232 1.04925,2.7614 3.94737,8.08868 6.44027,11.83841 2.4929,3.74972 7.72271,9.89742 11.62179,13.66155 3.89909,3.76413 7.08925,7.07734 7.08925,7.36271 0,0.28536 -3.13852,3.42462 -6.97449,6.97614 -3.83597,3.55152 -9.18442,9.76144 -11.88546,13.79981 -2.70103,4.03838 -6.20001,10.52633 -7.77551,14.41767 -1.57549,3.89133 -3.31454,7.08059 -3.86454,7.08724 -0.55,0.007 -2.54955,-3.21624 -4.44344,-7.16197 z m 12.64304,-14.70494 c 1.92351,-3.00693 6.82026,-8.85539 10.88167,-12.99657 7.38438,-7.52942 7.38438,-7.52942 0.88437,-14.08688 -3.57501,-3.60661 -7.86486,-8.57788 -9.53301,-11.04727 -1.66815,-2.4694 -3.76207,-5.83981 -4.65315,-7.48981 -0.89109,-1.65 -2.60148,-5.7908 -3.80085,-9.20177 -2.18069,-6.20177 -2.18069,-6.20177 -4.71925,0.19651 -1.3962,3.51905 -4.65342,9.73679 -7.23825,13.81719 -2.58483,4.0804 -7.74455,10.44043 -11.46605,14.13341 -6.76635,6.7145 -6.76635,6.7145 -1.25439,11.88458 3.03158,2.84354 8.02912,8.54605 11.10564,12.67223 3.07652,4.12619 6.93134,10.05909 8.56626,13.18424 2.9726,5.68208 2.9726,5.68208 5.35116,0.0417 1.3082,-3.10222 3.95234,-8.10061 5.87585,-11.10754 z" id="path1" stroke="currentColor" fill="none" stroke-width="5"/>
  </g>
</svg>